<svg width="145" height="98" viewBox="0 0 145 98" fill="none" xmlns="http://www.w3.org/2000/svg">
<path d="M82 10L58 11L81.5 37.5H115L82 10Z" fill="#283655"/>
<path d="M20 37L25.8462 33M58 11L82 10L115 37.5H81.5L58 11ZM58 11L25.8462 33M25.8462 33V72.5M8.5 35L58 2.5H86.5L131 39" stroke="#283655" stroke-width="4" stroke-linecap="round"/>
<rect x="34" y="35" width="35" height="37" rx="3" fill="#1E1F26"/>
<rect x="82" y="41" width="5" height="5" fill="#1E1F26"/>
<rect x="82" y="51" width="5" height="5" fill="#1E1F26"/>
<rect x="82" y="61" width="5" height="5" fill="#1E1F26"/>
<rect x="87" y="46" width="5" height="5" fill="#1E1F26"/>
<rect x="87" y="56" width="5" height="5" fill="#1E1F26"/>
<rect x="87" y="66" width="5" height="5" fill="#1E1F26"/>
<rect x="92" y="41" width="5" height="5" fill="#1E1F26"/>
<rect x="92" y="51" width="5" height="5" fill="#1E1F26"/>
<rect x="92" y="61" width="5" height="5" fill="#1E1F26"/>
<rect x="97" y="46" width="5" height="5" fill="#1E1F26"/>
<rect x="97" y="56" width="5" height="5" fill="#1E1F26"/>
<rect x="97" y="66" width="5" height="5" fill="#1E1F26"/>
<rect x="102" y="41" width="5" height="5" fill="#1E1F26"/>
<rect x="102" y="51" width="5" height="5" fill="#1E1F26"/>
<rect x="102" y="61" width="5" height="5" fill="#1E1F26"/>
<rect x="107" y="46" width="5" height="5" fill="#1E1F26"/>
<rect x="107" y="56" width="5" height="5" fill="#1E1F26"/>
<rect x="107" y="66" width="5" height="5" fill="#1E1F26"/>
<rect x="112" y="41" width="5" height="5" fill="#1E1F26"/>
<rect x="112" y="51" width="5" height="5" fill="#1E1F26"/>
<rect x="112" y="61" width="5" height="5" fill="#1E1F26"/>
<path d="M2.81616 93V78.002H7.88384C9.05556 78.002 10.0173 78.2022 10.7692 78.6025C11.521 78.998 12.0776 79.5423 12.4389 80.2356C12.8002 80.9289 12.9808 81.7173 12.9808 82.601C12.9808 83.4847 12.8002 84.2683 12.4389 84.9518C12.0776 85.6353 11.5235 86.1723 10.7765 86.5629C10.0295 86.9486 9.07508 87.1414 7.91313 87.1414H3.81212V85.501H7.85455C8.65522 85.501 9.29966 85.3838 9.78788 85.1495C10.281 84.9152 10.6374 84.5832 10.8571 84.1535C11.0817 83.719 11.1939 83.2015 11.1939 82.601C11.1939 82.0005 11.0817 81.4757 10.8571 81.0265C10.6325 80.5774 10.2737 80.2307 9.78056 79.9866C9.28746 79.7376 8.63569 79.6131 7.82525 79.6131H4.63232V93H2.81616ZM9.87576 86.2626L13.5667 93H11.4576L7.82525 86.2626H9.87576ZM16.0071 93V78.002H25.0586V79.6131H17.8233V84.6808H24.59V86.2919H17.8233V91.3889H25.1758V93H16.0071ZM28.9473 93H27.0432L32.5503 78.002H34.4251L39.9321 93H38.0281L33.5463 80.3747H33.4291L28.9473 93ZM29.6503 87.1414H37.3251V88.7525H29.6503V87.1414ZM42.2682 93V78.002H44.0844V91.3889H51.0561V93H42.2682Z" fill="#0A1828"/>
<path d="M59.1556 93V78.002H69.2617V80.6164H62.3266V84.1902H68.7417V86.8045H62.3266V90.3856H69.291V93H59.1556ZM79.9188 82.3154C79.8602 81.7247 79.6088 81.2657 79.1645 80.9386C78.7202 80.6115 78.1173 80.448 77.3557 80.448C76.8382 80.448 76.4012 80.5212 76.0448 80.6677C75.6884 80.8093 75.415 81.007 75.2246 81.2609C75.0391 81.5147 74.9463 81.8028 74.9463 82.125C74.9366 82.3935 74.9927 82.6279 75.1148 82.828C75.2417 83.0282 75.415 83.2015 75.6347 83.348C75.8544 83.4896 76.1083 83.6141 76.3963 83.7215C76.6844 83.824 76.992 83.9119 77.3191 83.9851L78.6665 84.3073C79.3208 84.4538 79.9213 84.6491 80.4681 84.8932C81.0149 85.1373 81.4884 85.4375 81.8888 85.7939C82.2891 86.1503 82.5991 86.5702 82.8188 87.0535C83.0434 87.5369 83.1581 88.091 83.163 88.7159C83.1581 89.6338 82.9238 90.4295 82.46 91.1033C82.0011 91.7721 81.3371 92.2921 80.4681 92.6631C79.6039 93.0293 78.5616 93.2124 77.341 93.2124C76.1303 93.2124 75.0757 93.0269 74.1774 92.6558C73.284 92.2848 72.5858 91.7355 72.083 91.0081C71.585 90.2758 71.3238 89.3701 71.2994 88.2912H74.3678C74.402 88.794 74.546 89.2139 74.7999 89.5508C75.0586 89.8827 75.4028 90.1342 75.8325 90.3051C76.267 90.471 76.7576 90.554 77.3044 90.554C77.8415 90.554 78.3077 90.4759 78.7032 90.3197C79.1035 90.1635 79.4135 89.9462 79.6332 89.6679C79.8529 89.3896 79.9628 89.0699 79.9628 88.7086C79.9628 88.3717 79.8627 88.0886 79.6625 87.8591C79.4672 87.6296 79.1792 87.4343 78.7984 87.2732C78.4224 87.1121 77.9611 86.9657 77.4143 86.8338L75.7812 86.4237C74.5167 86.1162 73.5183 85.6353 72.786 84.9811C72.0537 84.3269 71.6899 83.4456 71.6948 82.3374C71.6899 81.4293 71.9316 80.6359 72.4198 79.9573C72.9129 79.2787 73.5891 78.749 74.4484 78.3682C75.3076 77.9874 76.2841 77.797 77.3777 77.797C78.4908 77.797 79.4623 77.9874 80.2923 78.3682C81.1272 78.749 81.7765 79.2787 82.2403 79.9573C82.7041 80.6359 82.9433 81.422 82.958 82.3154H79.9188ZM84.7247 80.6164V78.002H97.0424V80.6164H92.4507V93H89.3164V80.6164H84.7247ZM99.8234 93H96.4254L101.603 78.002H105.689L110.859 93H107.461L103.705 81.4293H103.588L99.8234 93ZM99.611 87.1048H107.637V89.5801H99.611V87.1048ZM110.261 80.6164V78.002H122.578V80.6164H117.987V93H114.852V80.6164H110.261ZM124.607 93V78.002H134.713V80.6164H127.778V84.1902H134.193V86.8045H127.778V90.3856H134.742V93H124.607Z" fill="#4D648D"/>
</svg>
